<?xml version="1.0" encoding="utf-8"?>
<!-- Generator: Adobe Illustrator 26.3.1, SVG Export Plug-In . SVG Version: 6.00 Build 0)  -->
<svg version="1.1" id="Layer_1" xmlns="http://www.w3.org/2000/svg" xmlns:xlink="http://www.w3.org/1999/xlink" x="0px" y="0px"
	 viewBox="0 0 16 16" style="enable-background:new 0 0 16 16;" xml:space="preserve">
<style type="text/css">
	.st0{fill:#77B6EA;}
</style>
<g>
	<path class="st0" d="M8,1.04C4.16,1.04,1.04,4.16,1.04,8S4.16,14.96,8,14.96c1.45,0,2.8-0.44,3.91-1.2l-1.53-1.49
		C9.68,12.67,8.87,12.89,8,12.89c-2.7,0-4.89-2.19-4.89-4.89C3.11,5.3,5.3,3.11,8,3.11c2.7,0,4.89,2.19,4.89,4.89
		c0,1.07-0.34,2.06-0.93,2.87l1.52,1.42c0.93-1.18,1.48-2.67,1.48-4.29C14.96,4.16,11.84,1.04,8,1.04z"/>
	<path class="st0" d="M8.21,9.92c-0.7,0-1.41,0-2.11,0C5.55,9.91,5.13,9.67,4.86,9.19c-0.3-0.53-0.19-1.2,0.24-1.63
		C5.28,7.38,5.5,7.26,5.75,7.2C5.8,7.19,5.81,7.16,5.82,7.12c0.14-0.57,0.47-0.98,1-1.23c0.79-0.37,1.75-0.09,2.23,0.65
		C9.08,6.59,9.1,6.6,9.16,6.59c0.87-0.16,1.67,0.37,1.85,1.23c0.04,0.17,0.04,0.33,0.02,0.5c-0.01,0.04,0,0.06,0.03,0.09
		c0.25,0.29,0.31,0.62,0.16,0.96c-0.15,0.35-0.44,0.53-0.82,0.54c-0.37,0.01-0.73,0-1.1,0C8.93,9.92,8.57,9.92,8.21,9.92z"/>
</g>
</svg>
