<?xml version="1.0" encoding="utf-8"?>
<!-- Generator: Adobe Illustrator 26.3.1, SVG Export Plug-In . SVG Version: 6.00 Build 0)  -->
<svg version="1.1" id="Layer_1" xmlns="http://www.w3.org/2000/svg" xmlns:xlink="http://www.w3.org/1999/xlink" x="0px" y="0px"
	 viewBox="0 0 512 512" style="enable-background:new 0 0 512 512;" xml:space="preserve">
<style type="text/css">
	.st0{fill:#77B6EA;}
</style>
<g>
	<path class="st0" d="M255.99,45.67c-116.16,0-210.33,94.17-210.33,210.33s94.17,210.34,210.33,210.34
		c43.82,0,84.53-13.4,118.21-36.34l-46.13-44.92c-21.33,11.93-45.91,18.74-72.08,18.74c-81.63,0-147.81-66.18-147.81-147.82
		c0-81.63,66.18-147.82,147.81-147.82c81.64,0,147.82,66.19,147.82,147.82c0,32.35-10.39,62.27-28.03,86.61l45.85,43.02
		c28-35.72,44.69-80.72,44.69-129.63C466.33,139.83,372.17,45.67,255.99,45.67z"/>
	<path class="st0" d="M262.2,313.98c-21.26,0-42.53,0.15-63.79-0.05c-16.49-0.15-29.08-7.52-37.15-21.94
		c-8.94-15.96-5.86-36.2,7.15-49.22c5.53-5.54,12.1-9.25,19.7-11.05c1.42-0.34,1.85-1.01,2.14-2.24
		c4.11-17.15,14.15-29.61,30.08-37.08c23.97-11.24,52.97-2.71,67.37,19.62c0.88,1.36,1.63,1.69,3.25,1.39
		c26.25-4.88,50.35,11.1,56.05,37.14c1.1,5,1.36,10.08,0.65,15.18c-0.15,1.1,0.12,1.9,0.88,2.77c7.57,8.71,9.46,18.61,4.86,29.16
		c-4.64,10.65-13.31,16.06-24.9,16.28c-11.08,0.21-22.16,0.05-33.24,0.05C284.22,313.98,273.21,313.98,262.2,313.98z"/>
</g>
</svg>
