<?xml version="1.0" encoding="utf-8"?>
<!-- Generator: Adobe Illustrator 26.3.1, SVG Export Plug-In . SVG Version: 6.00 Build 0)  -->
<svg version="1.1" id="Layer_1" xmlns="http://www.w3.org/2000/svg" xmlns:xlink="http://www.w3.org/1999/xlink" x="0px" y="0px"
	 viewBox="0 0 92 30" style="enable-background:new 0 0 92 30;" xml:space="preserve">
<style type="text/css">
	.st0{fill:#77B6EA;}
	.st1{fill:#818284;}
	.st2{fill:none;stroke:#77B6EA;stroke-width:0.2;stroke-miterlimit:10;}
</style>
<g>
	<g>
		<path class="st0" d="M28.87,19.6c-0.91,0-1.73-0.18-2.44-0.54c-0.72-0.36-1.28-0.87-1.7-1.54c-0.41-0.67-0.62-1.46-0.62-2.39V7.55
			l-1.49-0.26V6.14h4.77v1.16l-1.49,0.26v7.58c0,0.66,0.13,1.22,0.38,1.67c0.25,0.45,0.6,0.79,1.05,1.02
			c0.45,0.23,0.97,0.34,1.56,0.34c0.6,0,1.12-0.11,1.58-0.34c0.46-0.23,0.82-0.56,1.08-1.01c0.26-0.45,0.39-1.01,0.39-1.68V7.55
			l-1.49-0.26V6.14h4.77v1.16l-1.49,0.26v7.58c0,0.96-0.2,1.77-0.61,2.44c-0.4,0.67-0.97,1.17-1.7,1.51
			C30.71,19.43,29.85,19.6,28.87,19.6z"/>
		<path class="st0" d="M36.6,19.41v-1.15l1.49-0.26V7.55L36.6,7.29V6.14h9.83v3.19h-1.44l-0.2-1.8h-4.9v4.32h4.9v1.41h-4.9v4.8h5.2
			l0.2-1.83h1.43v3.18H36.6z"/>
		<path class="st0" d="M48.51,19.41v-1.15L50,18.01V7.55l-1.49-0.26V6.15h5.92c0.96,0,1.78,0.14,2.45,0.43
			c0.67,0.29,1.17,0.71,1.52,1.25c0.35,0.55,0.52,1.22,0.52,2.01c0,0.78-0.17,1.43-0.51,1.96s-0.82,0.93-1.44,1.2
			c-0.62,0.27-1.36,0.42-2.21,0.43l-2.97,0.05v4.52l1.49,0.26v1.15H48.51z M51.79,12.07h2.45c1,0,1.73-0.19,2.19-0.57
			c0.46-0.38,0.68-0.94,0.68-1.68c0-0.7-0.22-1.25-0.66-1.66c-0.44-0.41-1.12-0.61-2.03-0.61h-2.63V12.07z M57.27,19.41l-2.95-6.63
			l1.79-0.02l2.45,5.31l0.92,0.16v1.18H57.27z"/>
		<path class="st0" d="M61.14,19.41v-1.15l1.49-0.26V7.55l-1.49-0.26V6.14h4.77v1.16l-1.49,0.26v10.46l1.49,0.26v1.15H61.14z"/>
		<path class="st0" d="M67.38,19.41v-1.15l1.49-0.26V7.55l-1.49-0.26V6.14h9.83v3.19h-1.44l-0.2-1.8h-4.9v4.32h4.9v1.41h-4.9v4.8
			h5.2l0.2-1.83h1.43v3.18H67.38z"/>
		<path class="st0" d="M84.07,19.6c-0.81,0-1.59-0.12-2.33-0.36c-0.75-0.24-1.46-0.6-2.14-1.09v-2.84h1.39l0.3,2.09
			c0.39,0.24,0.82,0.43,1.29,0.57s0.96,0.2,1.5,0.2c0.61,0,1.12-0.09,1.55-0.28c0.42-0.19,0.75-0.44,0.97-0.77
			c0.22-0.33,0.34-0.71,0.34-1.15c0-0.41-0.1-0.77-0.29-1.08s-0.51-0.58-0.96-0.82c-0.45-0.23-1.06-0.44-1.83-0.62
			c-0.91-0.21-1.68-0.5-2.31-0.85s-1.11-0.79-1.43-1.29s-0.49-1.09-0.49-1.75c0-0.69,0.18-1.31,0.55-1.86
			c0.37-0.55,0.88-0.98,1.54-1.29c0.66-0.32,1.42-0.47,2.3-0.47c0.93,0,1.75,0.14,2.47,0.42c0.71,0.28,1.3,0.62,1.76,1.03v2.65
			h-1.39l-0.3-1.9c-0.27-0.22-0.61-0.4-1.02-0.55C85.11,7.46,84.6,7.39,84,7.39c-0.51,0-0.96,0.09-1.35,0.27
			c-0.39,0.18-0.69,0.43-0.91,0.75s-0.33,0.7-0.33,1.14c0,0.38,0.1,0.72,0.3,1c0.2,0.29,0.52,0.54,0.97,0.75
			c0.45,0.22,1.04,0.42,1.79,0.61c1.4,0.35,2.46,0.86,3.18,1.54c0.72,0.68,1.08,1.52,1.08,2.51c0,0.71-0.19,1.34-0.57,1.89
			s-0.92,0.98-1.62,1.29S85.02,19.6,84.07,19.6z"/>
	</g>
	<g>
		<path class="st1" d="M23.1,21.61c0.16-0.29,0.39-0.52,0.67-0.68s0.6-0.25,0.95-0.25c0.41,0,0.76,0.1,1.07,0.29
			c0.3,0.2,0.52,0.47,0.66,0.83h-0.58c-0.1-0.22-0.25-0.4-0.45-0.52c-0.19-0.12-0.43-0.18-0.7-0.18c-0.26,0-0.49,0.06-0.7,0.18
			s-0.37,0.29-0.49,0.52c-0.12,0.22-0.18,0.49-0.18,0.79c0,0.3,0.06,0.56,0.18,0.78c0.12,0.22,0.28,0.4,0.49,0.52
			s0.44,0.18,0.7,0.18c0.27,0,0.5-0.06,0.7-0.18c0.19-0.12,0.34-0.29,0.45-0.52h0.58c-0.14,0.36-0.36,0.63-0.66,0.83
			c-0.3,0.19-0.66,0.29-1.07,0.29c-0.35,0-0.66-0.08-0.95-0.24c-0.28-0.16-0.51-0.39-0.67-0.68c-0.16-0.29-0.25-0.62-0.25-0.98
			S22.93,21.9,23.1,21.61z"/>
		<path class="st1" d="M27.7,24.32c-0.22-0.12-0.4-0.3-0.52-0.53s-0.19-0.5-0.19-0.8c0-0.3,0.06-0.57,0.2-0.8s0.31-0.41,0.53-0.53
			c0.23-0.12,0.48-0.18,0.76-0.18c0.28,0,0.53,0.06,0.76,0.18c0.22,0.12,0.4,0.3,0.53,0.53s0.2,0.49,0.2,0.8s-0.07,0.57-0.2,0.8
			s-0.31,0.41-0.54,0.53s-0.48,0.19-0.76,0.19C28.17,24.51,27.92,24.45,27.7,24.32z M28.94,23.96c0.15-0.08,0.28-0.21,0.37-0.37
			c0.09-0.16,0.14-0.36,0.14-0.6c0-0.24-0.05-0.44-0.14-0.6c-0.09-0.16-0.21-0.29-0.36-0.37s-0.31-0.12-0.49-0.12
			c-0.18,0-0.34,0.04-0.49,0.12c-0.15,0.08-0.27,0.2-0.36,0.37c-0.09,0.17-0.13,0.36-0.13,0.6c0,0.24,0.04,0.44,0.13,0.6
			c0.09,0.17,0.2,0.29,0.35,0.37s0.31,0.12,0.48,0.12S28.79,24.04,28.94,23.96z"/>
		<path class="st1" d="M32.89,21.8c0.22,0.22,0.33,0.53,0.33,0.93v1.73h-0.48V22.8c0-0.29-0.07-0.52-0.22-0.67
			c-0.15-0.16-0.35-0.23-0.6-0.23c-0.26,0-0.46,0.08-0.61,0.24c-0.15,0.16-0.23,0.39-0.23,0.7v1.62H30.6v-2.94h0.49v0.42
			c0.1-0.15,0.23-0.27,0.39-0.35s0.35-0.12,0.55-0.12C32.38,21.47,32.67,21.58,32.89,21.8z"/>
		<path class="st1" d="M34.62,21.93v1.73c0,0.14,0.03,0.24,0.09,0.3c0.06,0.06,0.17,0.09,0.32,0.09h0.36v0.41h-0.44
			c-0.27,0-0.47-0.06-0.61-0.19s-0.2-0.33-0.2-0.62v-1.73h-0.38v-0.4h0.38v-0.74h0.49v0.74h0.77v0.4H34.62z"/>
		<path class="st1" d="M35.97,22.19c0.12-0.23,0.29-0.4,0.5-0.53s0.45-0.19,0.71-0.19c0.26,0,0.48,0.06,0.67,0.17
			c0.19,0.11,0.33,0.25,0.42,0.42v-0.54h0.49v2.94h-0.49v-0.55c-0.1,0.17-0.24,0.31-0.43,0.43c-0.19,0.11-0.41,0.17-0.67,0.17
			c-0.26,0-0.5-0.06-0.71-0.19c-0.21-0.13-0.38-0.31-0.5-0.54c-0.12-0.23-0.18-0.5-0.18-0.79C35.79,22.68,35.85,22.42,35.97,22.19z
			 M38.14,22.41c-0.09-0.16-0.21-0.29-0.36-0.38c-0.15-0.09-0.32-0.13-0.5-0.13s-0.35,0.04-0.5,0.13s-0.27,0.21-0.36,0.38
			s-0.13,0.36-0.13,0.58c0,0.23,0.04,0.42,0.13,0.59s0.21,0.29,0.36,0.38c0.15,0.09,0.32,0.13,0.5,0.13s0.35-0.04,0.5-0.13
			c0.15-0.09,0.27-0.21,0.36-0.38s0.13-0.36,0.13-0.58C38.28,22.77,38.23,22.57,38.14,22.41z"/>
		<path class="st1" d="M39.59,22.19c0.12-0.23,0.29-0.4,0.51-0.53c0.22-0.12,0.46-0.19,0.74-0.19c0.36,0,0.66,0.09,0.89,0.26
			s0.39,0.42,0.46,0.73h-0.52c-0.05-0.18-0.15-0.32-0.29-0.42c-0.14-0.1-0.32-0.16-0.54-0.16c-0.28,0-0.5,0.1-0.67,0.29
			c-0.17,0.19-0.26,0.46-0.26,0.81c0,0.35,0.09,0.63,0.26,0.82c0.17,0.19,0.4,0.29,0.67,0.29c0.21,0,0.39-0.05,0.54-0.15
			c0.14-0.1,0.24-0.24,0.29-0.43h0.52c-0.08,0.3-0.24,0.54-0.47,0.72c-0.24,0.18-0.53,0.27-0.88,0.27c-0.28,0-0.53-0.06-0.74-0.19
			c-0.22-0.12-0.38-0.3-0.51-0.53c-0.12-0.23-0.18-0.5-0.18-0.8C39.41,22.69,39.47,22.42,39.59,22.19z"/>
		<path class="st1" d="M43.44,21.93v1.73c0,0.14,0.03,0.24,0.09,0.3c0.06,0.06,0.17,0.09,0.32,0.09h0.36v0.41h-0.44
			c-0.27,0-0.47-0.06-0.61-0.19s-0.2-0.33-0.2-0.62v-1.73h-0.38v-0.4h0.38v-0.74h0.49v0.74h0.77v0.4H43.44z"/>
		<path class="st1" d="M44.81,20.95c-0.06-0.06-0.1-0.14-0.1-0.24s0.03-0.17,0.1-0.24c0.06-0.06,0.14-0.1,0.24-0.1
			c0.09,0,0.17,0.03,0.23,0.1s0.09,0.14,0.09,0.24s-0.03,0.17-0.09,0.24c-0.06,0.06-0.14,0.1-0.23,0.1
			C44.95,21.05,44.87,21.02,44.81,20.95z M45.28,21.53v2.94h-0.49v-2.94H45.28z"/>
		<path class="st1" d="M48.41,21.8c0.22,0.22,0.33,0.53,0.33,0.93v1.73h-0.48V22.8c0-0.29-0.07-0.52-0.22-0.67
			c-0.15-0.16-0.35-0.23-0.6-0.23c-0.26,0-0.46,0.08-0.61,0.24c-0.15,0.16-0.23,0.39-0.23,0.7v1.62h-0.49v-2.94h0.49v0.42
			c0.1-0.15,0.23-0.27,0.39-0.35s0.35-0.12,0.55-0.12C47.9,21.47,48.19,21.58,48.41,21.8z"/>
		<path class="st1" d="M51.42,21.64c0.19,0.11,0.33,0.25,0.43,0.42v-0.54h0.49v3c0,0.27-0.06,0.51-0.17,0.71s-0.28,0.37-0.49,0.49
			c-0.21,0.12-0.46,0.18-0.74,0.18c-0.39,0-0.71-0.09-0.96-0.27c-0.26-0.18-0.41-0.43-0.46-0.74H50c0.05,0.18,0.16,0.32,0.33,0.43
			c0.17,0.11,0.37,0.16,0.6,0.16c0.27,0,0.49-0.08,0.66-0.25s0.25-0.4,0.25-0.71v-0.62c-0.1,0.17-0.24,0.31-0.43,0.43
			s-0.41,0.17-0.66,0.17c-0.26,0-0.5-0.06-0.71-0.19c-0.21-0.13-0.38-0.31-0.5-0.54c-0.12-0.23-0.18-0.5-0.18-0.79
			c0-0.3,0.06-0.56,0.18-0.79c0.12-0.23,0.29-0.4,0.5-0.53c0.21-0.12,0.45-0.19,0.71-0.19C51,21.48,51.23,21.53,51.42,21.64z
			 M51.71,22.41c-0.09-0.16-0.21-0.29-0.36-0.38c-0.15-0.09-0.32-0.13-0.5-0.13c-0.18,0-0.35,0.04-0.5,0.13
			c-0.15,0.09-0.27,0.21-0.36,0.38s-0.13,0.36-0.13,0.58c0,0.23,0.04,0.42,0.13,0.59s0.21,0.29,0.36,0.38
			c0.15,0.09,0.32,0.13,0.5,0.13c0.18,0,0.35-0.04,0.5-0.13c0.15-0.09,0.27-0.21,0.36-0.38c0.09-0.17,0.13-0.36,0.13-0.58
			C51.84,22.77,51.8,22.57,51.71,22.41z"/>
		<path class="st1" d="M58.73,21.61c0.18,0.09,0.32,0.24,0.42,0.43s0.16,0.42,0.16,0.69v1.73h-0.48V22.8c0-0.29-0.07-0.52-0.22-0.67
			c-0.14-0.16-0.34-0.23-0.59-0.23c-0.25,0-0.46,0.08-0.61,0.24c-0.15,0.16-0.22,0.4-0.22,0.71v1.62h-0.48V22.8
			c0-0.29-0.07-0.52-0.22-0.67c-0.14-0.16-0.34-0.23-0.59-0.23c-0.25,0-0.46,0.08-0.61,0.24c-0.15,0.16-0.23,0.4-0.23,0.71v1.62
			h-0.49v-2.94h0.49v0.42c0.1-0.15,0.23-0.27,0.39-0.35s0.34-0.12,0.54-0.12c0.25,0,0.46,0.05,0.65,0.17
			c0.19,0.11,0.33,0.27,0.42,0.49c0.08-0.21,0.22-0.37,0.41-0.48c0.19-0.11,0.4-0.17,0.63-0.17C58.35,21.47,58.55,21.52,58.73,21.61
			z"/>
		<path class="st1" d="M60.11,22.19c0.12-0.23,0.29-0.4,0.5-0.53c0.21-0.12,0.45-0.19,0.71-0.19c0.26,0,0.48,0.06,0.67,0.17
			c0.19,0.11,0.33,0.25,0.42,0.42v-0.54h0.49v2.94h-0.49v-0.55c-0.1,0.17-0.24,0.31-0.43,0.43c-0.19,0.11-0.41,0.17-0.67,0.17
			c-0.26,0-0.5-0.06-0.71-0.19c-0.21-0.13-0.38-0.31-0.5-0.54c-0.12-0.23-0.18-0.5-0.18-0.79C59.93,22.68,59.99,22.42,60.11,22.19z
			 M62.28,22.41c-0.09-0.16-0.21-0.29-0.36-0.38c-0.15-0.09-0.32-0.13-0.5-0.13c-0.18,0-0.35,0.04-0.5,0.13
			c-0.15,0.09-0.27,0.21-0.36,0.38s-0.13,0.36-0.13,0.58c0,0.23,0.04,0.42,0.13,0.59s0.21,0.29,0.36,0.38
			c0.15,0.09,0.32,0.13,0.5,0.13c0.18,0,0.35-0.04,0.5-0.13c0.15-0.09,0.27-0.21,0.36-0.38c0.09-0.17,0.13-0.36,0.13-0.58
			C62.41,22.77,62.37,22.57,62.28,22.41z"/>
		<path class="st1" d="M63.73,22.19c0.12-0.23,0.29-0.4,0.5-0.53c0.21-0.12,0.45-0.19,0.71-0.19c0.23,0,0.44,0.05,0.64,0.16
			s0.35,0.24,0.45,0.42V20.5h0.49v3.96h-0.49v-0.55c-0.1,0.17-0.24,0.32-0.43,0.43c-0.19,0.11-0.41,0.17-0.66,0.17
			c-0.26,0-0.5-0.06-0.71-0.19c-0.21-0.13-0.38-0.31-0.5-0.54c-0.12-0.23-0.18-0.5-0.18-0.79C63.55,22.68,63.61,22.42,63.73,22.19z
			 M65.9,22.41c-0.09-0.16-0.21-0.29-0.36-0.38c-0.15-0.09-0.32-0.13-0.5-0.13c-0.18,0-0.35,0.04-0.5,0.13
			c-0.15,0.09-0.27,0.21-0.36,0.38s-0.13,0.36-0.13,0.58c0,0.23,0.04,0.42,0.13,0.59s0.21,0.29,0.36,0.38
			c0.15,0.09,0.32,0.13,0.5,0.13c0.18,0,0.35-0.04,0.5-0.13c0.15-0.09,0.27-0.21,0.36-0.38c0.09-0.17,0.13-0.36,0.13-0.58
			C66.03,22.77,65.99,22.57,65.9,22.41z"/>
		<path class="st1" d="M70.01,23.18h-2.35c0.02,0.29,0.12,0.51,0.3,0.68c0.18,0.16,0.4,0.24,0.66,0.24c0.21,0,0.39-0.05,0.53-0.15
			c0.14-0.1,0.24-0.23,0.3-0.39h0.52c-0.08,0.28-0.24,0.51-0.47,0.69c-0.24,0.18-0.53,0.26-0.88,0.26c-0.28,0-0.53-0.06-0.75-0.19
			s-0.39-0.3-0.52-0.53s-0.19-0.5-0.19-0.8s0.06-0.57,0.18-0.8c0.12-0.23,0.29-0.41,0.51-0.53s0.47-0.18,0.76-0.18
			c0.28,0,0.53,0.06,0.74,0.18c0.21,0.12,0.38,0.29,0.5,0.5c0.12,0.21,0.17,0.45,0.17,0.72C70.03,22.97,70.02,23.07,70.01,23.18z
			 M69.4,22.3c-0.08-0.13-0.19-0.24-0.33-0.31c-0.14-0.07-0.3-0.1-0.47-0.1c-0.25,0-0.46,0.08-0.63,0.24
			c-0.17,0.16-0.27,0.38-0.3,0.65h1.85C69.52,22.59,69.48,22.43,69.4,22.3z"/>
		<path class="st1" d="M72.53,24.39c-0.18-0.08-0.32-0.18-0.42-0.32c-0.1-0.14-0.16-0.29-0.17-0.47h0.5
			c0.01,0.15,0.08,0.27,0.21,0.36c0.12,0.09,0.29,0.14,0.49,0.14c0.19,0,0.33-0.04,0.44-0.12c0.11-0.08,0.16-0.19,0.16-0.31
			c0-0.13-0.06-0.22-0.17-0.29s-0.29-0.12-0.53-0.18c-0.22-0.06-0.4-0.12-0.53-0.17s-0.26-0.15-0.35-0.26
			C72.05,22.64,72,22.49,72,22.3c0-0.15,0.04-0.29,0.13-0.41c0.09-0.12,0.22-0.22,0.38-0.3c0.16-0.07,0.35-0.11,0.56-0.11
			c0.32,0,0.59,0.08,0.79,0.25c0.2,0.17,0.31,0.39,0.32,0.67H73.7c-0.01-0.15-0.07-0.28-0.18-0.37c-0.11-0.09-0.26-0.14-0.45-0.14
			c-0.17,0-0.31,0.04-0.42,0.11c-0.1,0.07-0.16,0.17-0.16,0.29c0,0.1,0.03,0.18,0.09,0.24s0.14,0.11,0.24,0.15
			c0.09,0.04,0.23,0.08,0.39,0.13c0.21,0.06,0.38,0.11,0.51,0.17c0.13,0.05,0.25,0.14,0.34,0.25c0.09,0.11,0.14,0.25,0.15,0.43
			c0,0.16-0.04,0.3-0.13,0.43s-0.21,0.23-0.38,0.3c-0.16,0.07-0.35,0.11-0.56,0.11C72.91,24.51,72.71,24.47,72.53,24.39z"/>
		<path class="st1" d="M74.91,20.95c-0.06-0.06-0.1-0.14-0.1-0.24s0.03-0.17,0.1-0.24s0.14-0.1,0.24-0.1c0.09,0,0.17,0.03,0.23,0.1
			s0.09,0.14,0.09,0.24s-0.03,0.17-0.09,0.24c-0.06,0.06-0.14,0.1-0.23,0.1C75.05,21.05,74.98,21.02,74.91,20.95z M75.38,21.53v2.94
			h-0.49v-2.94H75.38z"/>
		<path class="st1" d="M80.35,21.61c0.18,0.09,0.32,0.24,0.42,0.43s0.16,0.42,0.16,0.69v1.73h-0.48V22.8c0-0.29-0.07-0.52-0.22-0.67
			c-0.14-0.16-0.34-0.23-0.59-0.23c-0.25,0-0.46,0.08-0.61,0.24c-0.15,0.16-0.22,0.4-0.22,0.71v1.62h-0.48V22.8
			c0-0.29-0.07-0.52-0.22-0.67c-0.14-0.16-0.34-0.23-0.59-0.23c-0.25,0-0.46,0.08-0.61,0.24c-0.15,0.16-0.23,0.4-0.23,0.71v1.62
			h-0.49v-2.94h0.49v0.42c0.1-0.15,0.23-0.27,0.39-0.35s0.34-0.12,0.54-0.12c0.25,0,0.46,0.05,0.65,0.17
			c0.19,0.11,0.33,0.27,0.42,0.49c0.08-0.21,0.22-0.37,0.41-0.48c0.19-0.11,0.4-0.17,0.63-0.17C79.97,21.47,80.17,21.52,80.35,21.61
			z"/>
		<path class="st1" d="M82.65,21.65c0.19-0.11,0.41-0.17,0.67-0.17c0.26,0,0.5,0.06,0.71,0.19c0.21,0.12,0.38,0.3,0.5,0.53
			c0.12,0.23,0.18,0.49,0.18,0.79c0,0.3-0.06,0.56-0.18,0.79c-0.12,0.23-0.29,0.41-0.5,0.54c-0.21,0.13-0.45,0.19-0.71,0.19
			c-0.25,0-0.47-0.06-0.66-0.17c-0.19-0.11-0.34-0.25-0.44-0.42v1.93h-0.49v-4.33h0.49v0.54C82.31,21.9,82.46,21.76,82.65,21.65z
			 M84.08,22.4c-0.09-0.16-0.21-0.29-0.36-0.38c-0.15-0.09-0.32-0.13-0.5-0.13c-0.18,0-0.34,0.04-0.5,0.13
			c-0.15,0.09-0.27,0.21-0.36,0.38c-0.09,0.17-0.14,0.36-0.14,0.58c0,0.22,0.05,0.42,0.14,0.58c0.09,0.17,0.21,0.29,0.36,0.38
			c0.15,0.09,0.32,0.13,0.5,0.13c0.18,0,0.35-0.04,0.5-0.13c0.15-0.09,0.27-0.21,0.36-0.38c0.09-0.17,0.13-0.36,0.13-0.59
			C84.21,22.76,84.16,22.57,84.08,22.4z"/>
		<path class="st1" d="M85.84,20.5v3.96h-0.49V20.5H85.84z"/>
		<path class="st1" d="M89.33,23.18h-2.35c0.02,0.29,0.12,0.51,0.3,0.68c0.18,0.16,0.4,0.24,0.66,0.24c0.21,0,0.39-0.05,0.53-0.15
			c0.14-0.1,0.24-0.23,0.3-0.39h0.52c-0.08,0.28-0.24,0.51-0.47,0.69c-0.24,0.18-0.53,0.26-0.88,0.26c-0.28,0-0.53-0.06-0.75-0.19
			s-0.39-0.3-0.52-0.53s-0.19-0.5-0.19-0.8s0.06-0.57,0.18-0.8c0.12-0.23,0.29-0.41,0.51-0.53s0.47-0.18,0.76-0.18
			c0.28,0,0.53,0.06,0.74,0.18c0.21,0.12,0.38,0.29,0.5,0.5c0.12,0.21,0.17,0.45,0.17,0.72C89.35,22.97,89.34,23.07,89.33,23.18z
			 M88.72,22.3c-0.08-0.13-0.19-0.24-0.33-0.31c-0.14-0.07-0.3-0.1-0.47-0.1c-0.25,0-0.46,0.08-0.63,0.24
			c-0.17,0.16-0.27,0.38-0.3,0.65h1.85C88.84,22.59,88.8,22.43,88.72,22.3z"/>
	</g>
	<g>
		<g>
			<path class="st0" d="M12.06,3.37c-5.2,0-9.41,4.21-9.41,9.41s4.21,9.41,9.41,9.41c1.96,0,3.78-0.6,5.29-1.63l-2.06-2.01
				c-0.95,0.53-2.05,0.84-3.22,0.84c-3.65,0-6.61-2.96-6.61-6.61c0-3.65,2.96-6.61,6.61-6.61c3.65,0,6.61,2.96,6.61,6.61
				c0,1.45-0.46,2.78-1.25,3.87l2.05,1.92c1.25-1.6,2-3.61,2-5.8C21.47,7.58,17.26,3.37,12.06,3.37z"/>
		</g>
		<g>
			<path class="st0" d="M12.34,15.37c-0.95,0-1.9,0.01-2.85,0c-0.74-0.01-1.3-0.34-1.66-0.98c-0.4-0.71-0.26-1.62,0.32-2.2
				c0.25-0.25,0.54-0.41,0.88-0.49c0.06-0.02,0.08-0.05,0.1-0.1c0.18-0.77,0.63-1.32,1.35-1.66c1.07-0.5,2.37-0.12,3.01,0.88
				c0.04,0.06,0.07,0.08,0.15,0.06c1.17-0.22,2.25,0.5,2.51,1.66c0.05,0.22,0.06,0.45,0.03,0.68c-0.01,0.05,0.01,0.08,0.04,0.12
				c0.34,0.39,0.42,0.83,0.22,1.3c-0.21,0.48-0.6,0.72-1.11,0.73c-0.5,0.01-0.99,0-1.49,0C13.32,15.37,12.83,15.37,12.34,15.37z"/>
		</g>
	</g>
	<line class="st2" x1="22.71" y1="26.63" x2="89.35" y2="26.63"/>
</g>
</svg>
